<mxfile host="app.diagrams.net" modified="2021-04-16T16:27:07.056Z" agent="5.0 (X11; Linux x86_64) AppleWebKit/537.36 (KHTML, like Gecko) Chrome/89.0.4389.114 Safari/537.36" etag="BhH-A8H7uh1g86ELGczY" version="14.6.0" type="github">
  <diagram id="TNVXcPHFdWVxmfzUQvek" name="Page-1">
    <mxGraphModel dx="1129" dy="648" grid="1" gridSize="10" guides="1" tooltips="1" connect="1" arrows="1" fold="1" page="1" pageScale="1" pageWidth="850" pageHeight="1100" math="0" shadow="0">
      <root>
        <mxCell id="0" />
        <mxCell id="1" parent="0" />
        <mxCell id="w6evuZdubALTYzZRVBoE-1" value="" style="rounded=0;whiteSpace=wrap;html=1;" parent="1" vertex="1">
          <mxGeometry x="85" y="70" width="680" height="400" as="geometry" />
        </mxCell>
        <mxCell id="w6evuZdubALTYzZRVBoE-2" value="" style="rounded=0;whiteSpace=wrap;html=1;" parent="1" vertex="1">
          <mxGeometry x="120" y="90" width="610" height="20" as="geometry" />
        </mxCell>
        <mxCell id="w6evuZdubALTYzZRVBoE-3" value="" style="triangle;whiteSpace=wrap;html=1;" parent="1" vertex="1">
          <mxGeometry x="150" y="95" width="10" height="10" as="geometry" />
        </mxCell>
        <mxCell id="w6evuZdubALTYzZRVBoE-4" value="" style="triangle;whiteSpace=wrap;html=1;rotation=-180;" parent="1" vertex="1">
          <mxGeometry x="130" y="95" width="10" height="10" as="geometry" />
        </mxCell>
        <mxCell id="w6evuZdubALTYzZRVBoE-6" value="" style="endArrow=none;html=1;exitX=0.001;exitY=0.133;exitDx=0;exitDy=0;exitPerimeter=0;entryX=1;entryY=0.133;entryDx=0;entryDy=0;entryPerimeter=0;" parent="1" source="w6evuZdubALTYzZRVBoE-1" target="w6evuZdubALTYzZRVBoE-1" edge="1">
          <mxGeometry width="50" height="50" relative="1" as="geometry">
            <mxPoint x="400" y="280" as="sourcePoint" />
            <mxPoint x="450" y="230" as="targetPoint" />
          </mxGeometry>
        </mxCell>
        <mxCell id="w6evuZdubALTYzZRVBoE-8" value="&lt;b&gt;&lt;font style=&quot;font-size: 15px&quot;&gt;Football Game Monday 6-7&lt;/font&gt;&lt;/b&gt;" style="rounded=0;whiteSpace=wrap;html=1;" parent="1" vertex="1">
          <mxGeometry x="120" y="140" width="210" height="30" as="geometry" />
        </mxCell>
        <mxCell id="w6evuZdubALTYzZRVBoE-9" value="&lt;b&gt;&lt;font style=&quot;font-size: 16px&quot;&gt;Short description of the event by the owner&lt;/font&gt;&lt;/b&gt;" style="rounded=0;whiteSpace=wrap;html=1;" parent="1" vertex="1">
          <mxGeometry x="380" y="140" width="360" height="100" as="geometry" />
        </mxCell>
        <mxCell id="w6evuZdubALTYzZRVBoE-11" value="Yaldıray Çınar" style="rounded=0;whiteSpace=wrap;html=1;" parent="1" vertex="1">
          <mxGeometry x="630" y="205" width="110" height="35" as="geometry" />
        </mxCell>
        <mxCell id="w6evuZdubALTYzZRVBoE-13" value="&amp;nbsp; &amp;nbsp; &amp;nbsp; &amp;nbsp; &amp;nbsp; &amp;nbsp; &amp;nbsp;&amp;nbsp;" style="rounded=0;whiteSpace=wrap;html=1;" parent="1" vertex="1">
          <mxGeometry x="120" y="170" width="210" height="70" as="geometry" />
        </mxCell>
        <mxCell id="w6evuZdubALTYzZRVBoE-14" value="" style="endArrow=none;html=1;exitX=0.5;exitY=1;exitDx=0;exitDy=0;entryX=0.5;entryY=0;entryDx=0;entryDy=0;" parent="1" source="w6evuZdubALTYzZRVBoE-13" target="w6evuZdubALTYzZRVBoE-13" edge="1">
          <mxGeometry width="50" height="50" relative="1" as="geometry">
            <mxPoint x="400" y="280" as="sourcePoint" />
            <mxPoint x="450" y="230" as="targetPoint" />
          </mxGeometry>
        </mxCell>
        <mxCell id="w6evuZdubALTYzZRVBoE-15" value="&lt;font style=&quot;font-size: 13px&quot;&gt;&lt;b&gt;18.09.2021&lt;br&gt;18 participants&lt;/b&gt;&lt;/font&gt;" style="text;html=1;strokeColor=none;fillColor=none;align=center;verticalAlign=middle;whiteSpace=wrap;rounded=0;" parent="1" vertex="1">
          <mxGeometry x="220" y="180" width="110" height="40" as="geometry" />
        </mxCell>
        <mxCell id="w6evuZdubALTYzZRVBoE-16" value="&lt;b&gt;Event location&lt;/b&gt;" style="text;html=1;strokeColor=none;fillColor=none;align=center;verticalAlign=middle;whiteSpace=wrap;rounded=0;" parent="1" vertex="1">
          <mxGeometry x="130" y="180" width="90" height="20" as="geometry" />
        </mxCell>
        <mxCell id="w6evuZdubALTYzZRVBoE-18" value="" style="shape=flexArrow;endArrow=classic;html=1;width=9.655172413793103;endSize=3.6344827586206896;exitX=0.438;exitY=1.288;exitDx=0;exitDy=0;exitPerimeter=0;" parent="1" source="w6evuZdubALTYzZRVBoE-16" edge="1">
          <mxGeometry width="50" height="50" relative="1" as="geometry">
            <mxPoint x="170" y="210" as="sourcePoint" />
            <mxPoint x="170" y="230" as="targetPoint" />
          </mxGeometry>
        </mxCell>
        <mxCell id="w6evuZdubALTYzZRVBoE-19" value="" style="rounded=0;whiteSpace=wrap;html=1;" parent="1" vertex="1">
          <mxGeometry x="120" y="270" width="200" height="70" as="geometry" />
        </mxCell>
        <mxCell id="w6evuZdubALTYzZRVBoE-20" value="&lt;b style=&quot;font-size: 13px&quot;&gt;Participant Applications&lt;br&gt;55 Applications&lt;/b&gt;" style="text;html=1;strokeColor=none;fillColor=none;align=center;verticalAlign=middle;whiteSpace=wrap;rounded=0;" parent="1" vertex="1">
          <mxGeometry x="140" y="290" width="160" height="30" as="geometry" />
        </mxCell>
        <mxCell id="w6evuZdubALTYzZRVBoE-21" value="&lt;b&gt;&lt;font style=&quot;font-size: 15px&quot;&gt;Update Event&lt;/font&gt;&lt;/b&gt;" style="rounded=0;whiteSpace=wrap;html=1;" parent="1" vertex="1">
          <mxGeometry x="380" y="270" width="170" height="60" as="geometry" />
        </mxCell>
        <mxCell id="w6evuZdubALTYzZRVBoE-22" value="&lt;font size=&quot;1&quot;&gt;&lt;b style=&quot;font-size: 14px&quot;&gt;Cancel Event&lt;/b&gt;&lt;/font&gt;" style="rounded=0;whiteSpace=wrap;html=1;" parent="1" vertex="1">
          <mxGeometry x="570" y="270" width="170" height="60" as="geometry" />
        </mxCell>
        <mxCell id="w6evuZdubALTYzZRVBoE-23" value="&lt;b&gt;Profile&lt;/b&gt;" style="rounded=0;whiteSpace=wrap;html=1;" parent="1" vertex="1">
          <mxGeometry x="240" y="400" width="90" height="40" as="geometry" />
        </mxCell>
        <mxCell id="w6evuZdubALTYzZRVBoE-24" value="&lt;b&gt;Menu&lt;/b&gt;" style="rounded=0;whiteSpace=wrap;html=1;" parent="1" vertex="1">
          <mxGeometry x="450" y="400" width="90" height="40" as="geometry" />
        </mxCell>
        <mxCell id="w6evuZdubALTYzZRVBoE-25" value="" style="endArrow=none;html=1;exitX=-0.002;exitY=0.784;exitDx=0;exitDy=0;entryX=1.01;entryY=0.788;entryDx=0;entryDy=0;exitPerimeter=0;entryPerimeter=0;" parent="1" source="w6evuZdubALTYzZRVBoE-1" target="w6evuZdubALTYzZRVBoE-1" edge="1">
          <mxGeometry width="50" height="50" relative="1" as="geometry">
            <mxPoint x="400" y="290" as="sourcePoint" />
            <mxPoint x="450" y="240" as="targetPoint" />
          </mxGeometry>
        </mxCell>
        <mxCell id="w6evuZdubALTYzZRVBoE-27" value="" style="aspect=fixed;html=1;points=[];align=center;image;fontSize=12;image=img/lib/azure2/general/Search.svg;" parent="1" vertex="1">
          <mxGeometry x="380" y="404.77" width="30" height="30.46" as="geometry" />
        </mxCell>
        <mxCell id="ekfrBhIp-4HLbyiUR4Lu-1" value="" style="rounded=0;whiteSpace=wrap;html=1;" vertex="1" parent="1">
          <mxGeometry x="87" y="521" width="685" height="360" as="geometry" />
        </mxCell>
        <mxCell id="ekfrBhIp-4HLbyiUR4Lu-2" value="" style="endArrow=none;html=1;" edge="1" parent="1">
          <mxGeometry width="50" height="50" relative="1" as="geometry">
            <mxPoint x="90" y="817" as="sourcePoint" />
            <mxPoint x="770" y="817" as="targetPoint" />
            <Array as="points">
              <mxPoint x="200" y="817" />
            </Array>
          </mxGeometry>
        </mxCell>
        <mxCell id="ekfrBhIp-4HLbyiUR4Lu-3" value="&lt;b&gt;Profile&lt;/b&gt;" style="rounded=0;whiteSpace=wrap;html=1;" vertex="1" parent="1">
          <mxGeometry x="250" y="830" width="90" height="40" as="geometry" />
        </mxCell>
        <mxCell id="ekfrBhIp-4HLbyiUR4Lu-4" value="" style="aspect=fixed;html=1;points=[];align=center;image;fontSize=12;image=img/lib/azure2/general/Search.svg;" vertex="1" parent="1">
          <mxGeometry x="390" y="830" width="30" height="30.46" as="geometry" />
        </mxCell>
        <mxCell id="ekfrBhIp-4HLbyiUR4Lu-5" value="&lt;b&gt;Menu&lt;/b&gt;" style="rounded=0;whiteSpace=wrap;html=1;" vertex="1" parent="1">
          <mxGeometry x="470" y="830" width="90" height="40" as="geometry" />
        </mxCell>
        <mxCell id="ekfrBhIp-4HLbyiUR4Lu-7" value="" style="rounded=0;whiteSpace=wrap;html=1;" vertex="1" parent="1">
          <mxGeometry x="130" y="540" width="610" height="20" as="geometry" />
        </mxCell>
        <mxCell id="ekfrBhIp-4HLbyiUR4Lu-9" value="" style="triangle;whiteSpace=wrap;html=1;rotation=-180;" vertex="1" parent="1">
          <mxGeometry x="140" y="545" width="10" height="10" as="geometry" />
        </mxCell>
        <mxCell id="ekfrBhIp-4HLbyiUR4Lu-10" value="" style="triangle;whiteSpace=wrap;html=1;" vertex="1" parent="1">
          <mxGeometry x="160" y="545" width="10" height="10" as="geometry" />
        </mxCell>
        <mxCell id="ekfrBhIp-4HLbyiUR4Lu-11" value="" style="endArrow=none;html=1;exitX=0.005;exitY=0.167;exitDx=0;exitDy=0;exitPerimeter=0;" edge="1" parent="1" source="ekfrBhIp-4HLbyiUR4Lu-1">
          <mxGeometry width="50" height="50" relative="1" as="geometry">
            <mxPoint x="410" y="490" as="sourcePoint" />
            <mxPoint x="773" y="580" as="targetPoint" />
          </mxGeometry>
        </mxCell>
        <mxCell id="ekfrBhIp-4HLbyiUR4Lu-12" value="&lt;b style=&quot;font-size: 15px&quot;&gt;Participants&lt;br&gt;1/18&lt;/b&gt;" style="rounded=0;whiteSpace=wrap;html=1;" vertex="1" parent="1">
          <mxGeometry x="355" y="590" width="100" height="40" as="geometry" />
        </mxCell>
        <mxCell id="ekfrBhIp-4HLbyiUR4Lu-16" value="" style="rounded=1;whiteSpace=wrap;html=1;" vertex="1" parent="1">
          <mxGeometry x="160" y="650" width="190" height="70" as="geometry" />
        </mxCell>
        <mxCell id="ekfrBhIp-4HLbyiUR4Lu-18" value="" style="rounded=1;whiteSpace=wrap;html=1;" vertex="1" parent="1">
          <mxGeometry x="461" y="740" width="200" height="70" as="geometry" />
        </mxCell>
        <mxCell id="ekfrBhIp-4HLbyiUR4Lu-19" value="" style="rounded=1;whiteSpace=wrap;html=1;" vertex="1" parent="1">
          <mxGeometry x="160" y="740" width="190" height="70" as="geometry" />
        </mxCell>
        <mxCell id="ekfrBhIp-4HLbyiUR4Lu-70" style="edgeStyle=orthogonalEdgeStyle;rounded=0;orthogonalLoop=1;jettySize=auto;html=1;exitX=1;exitY=0.75;exitDx=0;exitDy=0;entryX=0.5;entryY=1;entryDx=0;entryDy=0;" edge="1" parent="1" source="ekfrBhIp-4HLbyiUR4Lu-20" target="ekfrBhIp-4HLbyiUR4Lu-41">
          <mxGeometry relative="1" as="geometry" />
        </mxCell>
        <mxCell id="ekfrBhIp-4HLbyiUR4Lu-20" value="" style="rounded=1;whiteSpace=wrap;html=1;" vertex="1" parent="1">
          <mxGeometry x="460" y="650" width="200" height="70" as="geometry" />
        </mxCell>
        <mxCell id="ekfrBhIp-4HLbyiUR4Lu-21" value="" style="triangle;whiteSpace=wrap;html=1;" vertex="1" parent="1">
          <mxGeometry x="710" y="710" width="20" height="30" as="geometry" />
        </mxCell>
        <mxCell id="ekfrBhIp-4HLbyiUR4Lu-22" value="" style="triangle;whiteSpace=wrap;html=1;rotation=-180;" vertex="1" parent="1">
          <mxGeometry x="100" y="710" width="20" height="30" as="geometry" />
        </mxCell>
        <mxCell id="ekfrBhIp-4HLbyiUR4Lu-24" value="" style="endArrow=none;html=1;" edge="1" parent="1">
          <mxGeometry width="50" height="50" relative="1" as="geometry">
            <mxPoint x="85" y="636" as="sourcePoint" />
            <mxPoint x="776" y="636" as="targetPoint" />
          </mxGeometry>
        </mxCell>
        <mxCell id="ekfrBhIp-4HLbyiUR4Lu-25" value="" style="ellipse;whiteSpace=wrap;html=1;aspect=fixed;" vertex="1" parent="1">
          <mxGeometry x="180" y="660" width="50" height="50" as="geometry" />
        </mxCell>
        <mxCell id="ekfrBhIp-4HLbyiUR4Lu-26" value="" style="ellipse;whiteSpace=wrap;html=1;aspect=fixed;" vertex="1" parent="1">
          <mxGeometry x="480" y="750" width="50" height="50" as="geometry" />
        </mxCell>
        <mxCell id="ekfrBhIp-4HLbyiUR4Lu-27" value="" style="ellipse;whiteSpace=wrap;html=1;aspect=fixed;" vertex="1" parent="1">
          <mxGeometry x="180" y="750" width="50" height="50" as="geometry" />
        </mxCell>
        <mxCell id="ekfrBhIp-4HLbyiUR4Lu-28" value="" style="ellipse;whiteSpace=wrap;html=1;aspect=fixed;" vertex="1" parent="1">
          <mxGeometry x="480" y="660" width="50" height="50" as="geometry" />
        </mxCell>
        <mxCell id="ekfrBhIp-4HLbyiUR4Lu-29" value="" style="ellipse;whiteSpace=wrap;html=1;aspect=fixed;" vertex="1" parent="1">
          <mxGeometry x="265" y="690" width="20" height="20" as="geometry" />
        </mxCell>
        <mxCell id="ekfrBhIp-4HLbyiUR4Lu-30" value="10" style="ellipse;whiteSpace=wrap;html=1;aspect=fixed;" vertex="1" parent="1">
          <mxGeometry x="240" y="690" width="20" height="20" as="geometry" />
        </mxCell>
        <mxCell id="ekfrBhIp-4HLbyiUR4Lu-31" value="SP" style="ellipse;whiteSpace=wrap;html=1;aspect=fixed;" vertex="1" parent="1">
          <mxGeometry x="540" y="690" width="20" height="20" as="geometry" />
        </mxCell>
        <mxCell id="ekfrBhIp-4HLbyiUR4Lu-32" value="" style="ellipse;whiteSpace=wrap;html=1;aspect=fixed;" vertex="1" parent="1">
          <mxGeometry x="570" y="690" width="20" height="20" as="geometry" />
        </mxCell>
        <mxCell id="ekfrBhIp-4HLbyiUR4Lu-33" value="GK" style="ellipse;whiteSpace=wrap;html=1;aspect=fixed;" vertex="1" parent="1">
          <mxGeometry x="240" y="780" width="20" height="20" as="geometry" />
        </mxCell>
        <mxCell id="ekfrBhIp-4HLbyiUR4Lu-34" value="" style="ellipse;whiteSpace=wrap;html=1;aspect=fixed;" vertex="1" parent="1">
          <mxGeometry x="265" y="780" width="20" height="20" as="geometry" />
        </mxCell>
        <mxCell id="ekfrBhIp-4HLbyiUR4Lu-35" value="18-" style="ellipse;whiteSpace=wrap;html=1;aspect=fixed;" vertex="1" parent="1">
          <mxGeometry x="540" y="780" width="20" height="20" as="geometry" />
        </mxCell>
        <mxCell id="ekfrBhIp-4HLbyiUR4Lu-38" value="" style="rounded=0;whiteSpace=wrap;html=1;" vertex="1" parent="1">
          <mxGeometry x="301.25" y="685" width="30" height="30" as="geometry" />
        </mxCell>
        <mxCell id="ekfrBhIp-4HLbyiUR4Lu-39" value="" style="rounded=0;whiteSpace=wrap;html=1;" vertex="1" parent="1">
          <mxGeometry x="292.5" y="765" width="47.5" height="35" as="geometry" />
        </mxCell>
        <mxCell id="ekfrBhIp-4HLbyiUR4Lu-40" value="" style="rounded=0;whiteSpace=wrap;html=1;" vertex="1" parent="1">
          <mxGeometry x="600" y="775" width="50" height="30" as="geometry" />
        </mxCell>
        <mxCell id="ekfrBhIp-4HLbyiUR4Lu-41" value="" style="rounded=0;whiteSpace=wrap;html=1;" vertex="1" parent="1">
          <mxGeometry x="610" y="687.5" width="40" height="25" as="geometry" />
        </mxCell>
        <mxCell id="ekfrBhIp-4HLbyiUR4Lu-44" value="" style="endArrow=none;html=1;exitX=0.5;exitY=1;exitDx=0;exitDy=0;entryX=0.5;entryY=0;entryDx=0;entryDy=0;" edge="1" parent="1" source="ekfrBhIp-4HLbyiUR4Lu-39" target="ekfrBhIp-4HLbyiUR4Lu-39">
          <mxGeometry width="50" height="50" relative="1" as="geometry">
            <mxPoint x="380" y="800" as="sourcePoint" />
            <mxPoint x="430" y="750" as="targetPoint" />
          </mxGeometry>
        </mxCell>
        <mxCell id="ekfrBhIp-4HLbyiUR4Lu-47" value="" style="endArrow=none;html=1;entryX=0.5;entryY=0;entryDx=0;entryDy=0;startArrow=none;" edge="1" parent="1" target="ekfrBhIp-4HLbyiUR4Lu-40">
          <mxGeometry width="50" height="50" relative="1" as="geometry">
            <mxPoint x="625" y="810" as="sourcePoint" />
            <mxPoint x="430" y="750" as="targetPoint" />
          </mxGeometry>
        </mxCell>
        <mxCell id="ekfrBhIp-4HLbyiUR4Lu-48" value="&lt;b&gt;Ali Topavuran&lt;br&gt;32&lt;/b&gt;" style="text;html=1;strokeColor=none;fillColor=none;align=center;verticalAlign=middle;whiteSpace=wrap;rounded=0;" vertex="1" parent="1">
          <mxGeometry x="230" y="660" width="90" height="20" as="geometry" />
        </mxCell>
        <mxCell id="ekfrBhIp-4HLbyiUR4Lu-49" value="&lt;b&gt;Cem Kova&lt;br&gt;25&lt;/b&gt;" style="text;html=1;strokeColor=none;fillColor=none;align=center;verticalAlign=middle;whiteSpace=wrap;rounded=0;" vertex="1" parent="1">
          <mxGeometry x="550" y="660" width="80" height="20" as="geometry" />
        </mxCell>
        <mxCell id="ekfrBhIp-4HLbyiUR4Lu-51" value="&lt;b&gt;Deniz Şişman&lt;br&gt;30&lt;br&gt;&lt;/b&gt;" style="text;html=1;strokeColor=none;fillColor=none;align=center;verticalAlign=middle;whiteSpace=wrap;rounded=0;" vertex="1" parent="1">
          <mxGeometry x="230" y="745" width="90" height="20" as="geometry" />
        </mxCell>
        <mxCell id="ekfrBhIp-4HLbyiUR4Lu-53" value="&lt;b&gt;Sergen Küçük&lt;br&gt;15&lt;br&gt;&lt;/b&gt;" style="text;html=1;strokeColor=none;fillColor=none;align=center;verticalAlign=middle;whiteSpace=wrap;rounded=0;" vertex="1" parent="1">
          <mxGeometry x="550" y="750" width="90" height="20" as="geometry" />
        </mxCell>
        <mxCell id="ekfrBhIp-4HLbyiUR4Lu-54" value="" style="image;html=1;image=img/lib/clip_art/people/Suit_Man_128x128.png" vertex="1" parent="1">
          <mxGeometry x="180" y="755" width="50" height="40" as="geometry" />
        </mxCell>
        <mxCell id="ekfrBhIp-4HLbyiUR4Lu-55" value="" style="image;html=1;image=img/lib/clip_art/people/Suit_Man_128x128.png" vertex="1" parent="1">
          <mxGeometry x="180" y="665" width="50" height="40" as="geometry" />
        </mxCell>
        <mxCell id="ekfrBhIp-4HLbyiUR4Lu-56" value="" style="image;html=1;image=img/lib/clip_art/people/Suit_Man_128x128.png" vertex="1" parent="1">
          <mxGeometry x="480" y="665" width="50" height="40" as="geometry" />
        </mxCell>
        <mxCell id="ekfrBhIp-4HLbyiUR4Lu-57" value="" style="image;html=1;image=img/lib/clip_art/people/Suit_Man_128x128.png" vertex="1" parent="1">
          <mxGeometry x="480" y="755" width="50" height="40" as="geometry" />
        </mxCell>
        <mxCell id="ekfrBhIp-4HLbyiUR4Lu-60" value="" style="shape=image;html=1;verticalAlign=top;verticalLabelPosition=bottom;labelBackgroundColor=#ffffff;imageAspect=0;aspect=fixed;image=https://cdn2.iconfinder.com/data/icons/basic-ui-elements-16/117/correct-128.png" vertex="1" parent="1">
          <mxGeometry x="294.5" y="772.5" width="20" height="20" as="geometry" />
        </mxCell>
        <mxCell id="ekfrBhIp-4HLbyiUR4Lu-59" value="" style="shape=image;html=1;verticalAlign=top;verticalLabelPosition=bottom;labelBackgroundColor=#ffffff;imageAspect=0;aspect=fixed;image=https://cdn2.iconfinder.com/data/icons/basic-ui-elements-16/117/correct-128.png" vertex="1" parent="1">
          <mxGeometry x="603" y="780" width="20" height="20" as="geometry" />
        </mxCell>
        <mxCell id="ekfrBhIp-4HLbyiUR4Lu-63" value="" style="shape=image;html=1;verticalAlign=top;verticalLabelPosition=bottom;labelBackgroundColor=#ffffff;imageAspect=0;aspect=fixed;image=https://cdn4.iconfinder.com/data/icons/music-ui-solid-24px/24/tick_success_done_valid-2-128.png" vertex="1" parent="1">
          <mxGeometry x="301.25" y="685" width="30" height="30" as="geometry" />
        </mxCell>
        <mxCell id="ekfrBhIp-4HLbyiUR4Lu-64" value="" style="shape=image;html=1;verticalAlign=top;verticalLabelPosition=bottom;labelBackgroundColor=#ffffff;imageAspect=0;aspect=fixed;image=https://cdn4.iconfinder.com/data/icons/multimedia-75/512/multimedia-26-128.png" vertex="1" parent="1">
          <mxGeometry x="630" y="780" width="20" height="20" as="geometry" />
        </mxCell>
        <mxCell id="ekfrBhIp-4HLbyiUR4Lu-67" value="" style="shape=image;html=1;verticalAlign=top;verticalLabelPosition=bottom;labelBackgroundColor=#ffffff;imageAspect=0;aspect=fixed;image=https://cdn4.iconfinder.com/data/icons/multimedia-75/512/multimedia-26-128.png" vertex="1" parent="1">
          <mxGeometry x="320" y="772.5" width="20" height="20" as="geometry" />
        </mxCell>
        <mxCell id="ekfrBhIp-4HLbyiUR4Lu-69" value="" style="shape=image;html=1;verticalAlign=top;verticalLabelPosition=bottom;labelBackgroundColor=#ffffff;imageAspect=0;aspect=fixed;image=https://cdn4.iconfinder.com/data/icons/music-ui-solid-24px/24/cross_delete_remove_close-2-128.png" vertex="1" parent="1">
          <mxGeometry x="617" y="685.5" width="27.5" height="27.5" as="geometry" />
        </mxCell>
        <mxCell id="ekfrBhIp-4HLbyiUR4Lu-71" value="" style="html=1;verticalLabelPosition=bottom;labelBackgroundColor=#ffffff;verticalAlign=top;shadow=0;dashed=0;strokeWidth=2;shape=mxgraph.ios7.misc.star;fillColor=#0080f0;strokeColor=none;" vertex="1" parent="1">
          <mxGeometry x="269" y="694" width="12" height="12" as="geometry" />
        </mxCell>
        <mxCell id="ekfrBhIp-4HLbyiUR4Lu-72" value="" style="html=1;verticalLabelPosition=bottom;labelBackgroundColor=#ffffff;verticalAlign=top;shadow=0;dashed=0;strokeWidth=2;shape=mxgraph.ios7.misc.star;fillColor=#0080f0;strokeColor=none;" vertex="1" parent="1">
          <mxGeometry x="574" y="695" width="12" height="12" as="geometry" />
        </mxCell>
        <mxCell id="ekfrBhIp-4HLbyiUR4Lu-73" value="" style="shape=image;html=1;verticalAlign=top;verticalLabelPosition=bottom;labelBackgroundColor=#ffffff;imageAspect=0;aspect=fixed;image=https://cdn4.iconfinder.com/data/icons/emoji-line-doodle/91/Emoji_LIne_Doodle_C-03-128.png" vertex="1" parent="1">
          <mxGeometry x="265" y="780" width="20" height="20" as="geometry" />
        </mxCell>
        <mxCell id="ekfrBhIp-4HLbyiUR4Lu-74" value="" style="shape=image;html=1;verticalAlign=top;verticalLabelPosition=bottom;labelBackgroundColor=#ffffff;imageAspect=0;aspect=fixed;image=https://cdn2.iconfinder.com/data/icons/freecns-cumulus/32/519775-87_Lightning-128.png" vertex="1" parent="1">
          <mxGeometry x="551" y="765.5" width="49" height="49" as="geometry" />
        </mxCell>
      </root>
    </mxGraphModel>
  </diagram>
</mxfile>
